<?xml version="1.0" standalone="no"?>
<!DOCTYPE svg PUBLIC "-//W3C//DTD SVG 20010904//EN"
 "http://www.w3.org/TR/2001/REC-SVG-20010904/DTD/svg10.dtd">
<svg version="1.0" xmlns="http://www.w3.org/2000/svg"
 width="114.000000pt" height="114.000000pt" viewBox="0 0 114.000000 114.000000"
 preserveAspectRatio="xMidYMid meet">
<metadata>
Created by potrace 1.14, written by Peter Selinger 2001-2017
</metadata>
<g transform="translate(0.000000,114.000000) scale(0.100000,-0.100000)"
fill="#000000" stroke="none">
<path d="M12 948 c-17 -17 -17 -729 0 -746 17 -17 299 -17 316 0 17 17 17 729
0 746 -17 17 -299 17 -316 0z"/>
<path d="M615 710 c-1 -90 1 -100 17 -100 16 0 18 11 18 100 0 89 -2 100 -18
100 -15 0 -17 -12 -17 -100z"/>
<path d="M400 684 c0 -68 2 -74 20 -74 19 0 21 6 19 51 -2 35 2 53 12 60 37
23 57 -2 55 -68 -1 -34 2 -43 15 -43 23 0 28 17 23 76 -6 61 -20 72 -90 72
l-54 -1 0 -73z"/>
<path d="M710 757 c0 -2 12 -32 26 -67 24 -60 27 -92 9 -132 -5 -14 -2 -18 13
-18 13 0 24 10 30 28 5 15 26 64 46 110 35 81 35 83 13 80 -16 -2 -26 -15 -37
-45 -8 -24 -18 -43 -21 -43 -4 0 -14 19 -21 43 -11 30 -21 43 -36 45 -12 2
-22 2 -22 -1z"/>
<path d="M820 391 c0 -94 1 -101 20 -101 16 0 19 6 16 33 l-4 32 28 -33 c20
-24 35 -33 51 -30 22 3 22 3 -9 37 -34 38 -35 35 17 91 13 13 12 15 -8 18 -16
3 -31 -6 -50 -29 l-27 -32 0 54 c1 43 -2 54 -16 57 -16 3 -18 -7 -18 -97z"/>
<path d="M432 433 c-19 -8 -40 -55 -36 -83 9 -60 95 -82 133 -34 27 34 27 64
0 98 -20 25 -61 34 -97 19z m71 -45 c8 -12 8 -24 -1 -42 -13 -30 -47 -35 -60
-8 -27 51 31 98 61 50z"/>
<path d="M620 413 c-39 -50 -6 -123 55 -123 49 0 79 29 78 76 -2 72 -89 103
-133 47z m90 -28 c12 -31 4 -52 -23 -61 -35 -11 -63 46 -35 74 20 20 48 14 58
-13z"/>
<path d="M1020 426 c-21 -26 -8 -58 29 -71 19 -6 37 -17 39 -23 5 -15 -30 -16
-45 -1 -7 7 -19 9 -29 5 -16 -6 -16 -8 1 -26 34 -38 122 -16 113 28 -3 16 -18
27 -62 42 -22 8 -26 14 -18 22 9 9 18 8 36 -1 35 -19 50 -11 31 17 -19 26 -75
31 -95 8z"/>
</g>
</svg>
